# Blender v2.93.3 OBJ File: ''
# www.blender.org
o Cube_Cube.001
v -1.438226 3.449966 -1.837647
v -1.438226 0.823372 -1.837646
v -1.438226 3.449967 0.788947
v -1.438226 0.823373 0.788948
v 1.188368 3.449966 -1.837647
v 1.188368 0.823372 -1.837646
v 1.188368 3.449967 0.788947
v 1.188368 0.823373 0.788948
vt 0.901709 0.834659
vt 0.763715 0.972653
vt 0.763715 0.834659
vt 0.300141 0.326836
vt 0.015728 0.611250
vt 0.015728 0.326836
vt 0.993325 0.018393
vt 0.323081 0.688638
vt 0.323081 0.018393
vt 0.673043 0.704145
vt 0.392957 0.984230
vt 0.392957 0.704145
vt 0.301145 0.700768
vt 0.017806 0.984107
vt 0.017806 0.700768
vt 0.304585 0.009844
vt 0.020172 0.294258
vt 0.020172 0.009844
vt 0.901709 0.972653
vt 0.300141 0.611250
vt 0.993325 0.688638
vt 0.673043 0.984230
vt 0.301145 0.984107
vt 0.304585 0.294258
vn -1.0000 0.0000 0.0000
vn 0.0000 0.0000 1.0000
vn 1.0000 0.0000 0.0000
vn 0.0000 -0.0000 -1.0000
vn 0.0000 1.0000 -0.0000
vn 0.0000 -1.0000 0.0000
s off
f 2/1/1 3/2/1 1/3/1
f 4/4/2 7/5/2 3/6/2
f 8/7/3 5/8/3 7/9/3
f 6/10/4 1/11/4 5/12/4
f 7/13/5 1/14/5 3/15/5
f 4/16/6 6/17/6 8/18/6
f 2/1/1 4/19/1 3/2/1
f 4/4/2 8/20/2 7/5/2
f 8/7/3 6/21/3 5/8/3
f 6/10/4 2/22/4 1/11/4
f 7/13/5 5/23/5 1/14/5
f 4/16/6 2/24/6 6/17/6
